<svg width="104" height="39" fill="none" xmlns="http://www.w3.org/2000/svg"><path d="M104 3.178c0 5.894-28.06 12.399-30.184 12.399-1.192 0-2.543-.278-2.543-1.39 0-.372.423-.909 1.166-1.556l-1.97-3.543a.915.915 0 01.45-1.292l.338-.137a2.224 2.224 0 011.888.101l3.576 1.917a85.372 85.372 0 014.636-2.574l-6.969-4.577A.917.917 0 0174.4.99l.57-.363a4.005 4.005 0 013.186-.492l11.592 3.096C93.362 1.779 96.63.788 98.564.788c.516 0 1.034.013 1.533.05l-3.5 1.6-.085 1.192 5.404-2.515c1.296.313 2.084.896 2.084 2.063zM89.897 13.352l4.324 4.973a.892.892 0 001.055.224l.579-.272a2.739 2.739 0 001.543-2.795l-.542-4.687a.45.45 0 00-.596-.376l-6.175 2.202a.458.458 0 00-.188.73zM18.521 4.885c-.57-.087-1.17-.296-1.798-.629v-.823h5.395v.823c-.242.16-.5.29-.77.39-.272.102-.536.181-.793.24l-3.79 13.723-2.226.26-3.32-10.493-3.232 10.232-2.249.26L1.563 4.886a4.71 4.71 0 01-.835-.238A5.841 5.841 0 010 4.257v-.824h6.937v.823c-.242.13-.52.253-.835.369-.3.101-.613.188-.942.26l1.992 7.653.45 2.819h.042l.75-2.927 2.847-8.997h1.264l3.04 8.888.728 2.819h.043l.492-2.862 1.713-7.393zM21.135 13.189c0-.882.128-1.67.385-2.364a5.136 5.136 0 011.135-1.799c.5-.491 1.099-.867 1.798-1.127.7-.26 1.492-.39 2.377-.39 1 0 1.856.144 2.57.433.728.275 1.32.665 1.777 1.17a4.389 4.389 0 011.028 1.8c.214.694.32 1.453.32 2.277 0 .881-.128 1.676-.385 2.384a4.79 4.79 0 01-1.135 1.778 4.79 4.79 0 01-1.798 1.127c-.7.26-1.492.39-2.377.39-.97 0-1.813-.137-2.526-.411-.714-.29-1.307-.68-1.778-1.17a4.809 4.809 0 01-1.049-1.8 7.447 7.447 0 01-.342-2.298zm3.318 0c0 .65.036 1.25.108 1.799.085.535.228.99.428 1.366.2.376.47.672.813.889.343.202.785.303 1.328.303.314 0 .6-.072.856-.217.257-.159.479-.404.664-.737.186-.347.321-.795.407-1.344.1-.563.15-1.25.15-2.06 0-.664-.043-1.264-.129-1.799-.071-.535-.207-.99-.406-1.366a2.062 2.062 0 00-.771-.867c-.329-.217-.743-.325-1.242-.325-.371 0-.692.08-.964.238-.27.145-.5.39-.685.737-.185.333-.328.781-.428 1.345-.086.549-.129 1.228-.129 2.038zM39.394 10.262a2.998 2.998 0 00-.6.433c-.228.203-.435.535-.621.998v5.55c.285.029.571.086.856.173.286.072.571.188.857.347v.845h-6.21v-.845c.258-.145.5-.253.729-.325.228-.072.456-.137.685-.195V9.308l-1.413-.174V8.29c.228-.101.506-.195.835-.282a12.27 12.27 0 011.049-.217c.357-.072.7-.13 1.028-.173l.856-.109h.728v2.884h.086c.114-.318.278-.65.492-.997.229-.347.493-.665.792-.954.3-.29.629-.52.985-.694a2.314 2.314 0 011.114-.239c.157.203.292.492.407.868.114.361.206.708.278 1.04v.846h-2.933zM48.979 18.608h-5.91v-.845a6.988 6.988 0 011.413-.52V4.105l-1.627-.174v-.845c.186-.087.443-.174.77-.26.33-.087.679-.16 1.05-.217.385-.072.764-.13 1.135-.174.385-.057.728-.1 1.028-.13h.728v14.938c.47.115.942.289 1.413.52v.845zM57.48 16.462c-.071.318-.2.622-.386.91-.185.29-.406.55-.663.781a3.15 3.15 0 01-.878.52c-.328.13-.678.196-1.05.196-1.413 0-2.49-.448-3.233-1.345-.728-.91-1.092-2.298-1.092-4.162 0-.954.129-1.785.386-2.493.257-.723.614-1.33 1.07-1.821a4.489 4.489 0 011.692-1.106c.657-.246 1.385-.369 2.184-.369.257 0 .471.008.642.022.186.015.35.036.493.065.157.015.3.05.428.109.143.043.3.094.471.151V4.105l-1.627-.174v-.845c.2-.087.47-.166.813-.239.357-.072.729-.137 1.114-.195.385-.072.764-.137 1.135-.195.37-.058.678-.108.92-.152h.728V17.07l1.414.174v.759a4.22 4.22 0 01-.771.281c-.314.087-.643.166-.985.239-.343.072-.678.13-1.006.173-.315.058-.579.101-.793.13h-.728l-.192-2.363h-.086zm-1.948.672c.5 0 .92-.159 1.263-.477.342-.318.592-.86.75-1.626V9.2a2.496 2.496 0 00-.707-.281 4.077 4.077 0 00-1.028-.109c-.828 0-1.42.383-1.777 1.15-.357.75-.536 1.85-.536 3.295 0 1.17.157 2.11.471 2.818.314.708.835 1.062 1.563 1.062zM.664 33.32c0-.882.128-1.67.385-2.363a5.137 5.137 0 011.135-1.8c.5-.491 1.1-.867 1.799-1.127.699-.26 1.491-.39 2.376-.39 1 0 1.856.144 2.57.433.728.275 1.32.665 1.777 1.171a4.39 4.39 0 011.028 1.8c.214.693.32 1.452.32 2.276 0 .882-.128 1.676-.385 2.385a4.788 4.788 0 01-1.134 1.777 4.792 4.792 0 01-1.799 1.128c-.7.26-1.492.39-2.377.39-.97 0-1.813-.137-2.526-.412-.714-.289-1.306-.68-1.777-1.17a4.81 4.81 0 01-1.05-1.8 7.447 7.447 0 01-.342-2.298zm3.319 0c0 .65.035 1.25.107 1.8.085.534.228.99.428 1.365.2.376.471.672.814.889.342.202.785.303 1.327.303.314 0 .6-.072.857-.216.256-.16.478-.405.663-.737.186-.347.321-.795.407-1.344.1-.564.15-1.25.15-2.06 0-.665-.043-1.265-.128-1.8-.072-.534-.207-.99-.407-1.365a2.063 2.063 0 00-.771-.868c-.328-.216-.742-.325-1.242-.325-.371 0-.692.08-.964.239-.27.144-.5.39-.685.737-.185.332-.328.78-.428 1.344-.086.55-.128 1.229-.128 2.038zM19.586 22.437c.586 0 1.107.057 1.564.173.47.101.827.202 1.07.303a8.09 8.09 0 01-.278 1.475c-.143.506-.271.925-.386 1.257h-.728l-.942-2.06a2.97 2.97 0 00-.942.13 1.092 1.092 0 00-.6.456c-.142.231-.25.564-.32.997-.072.42-.108.969-.108 1.648V27.9h2.27v1.366h-2.27v8.108c.743.087 1.428.26 2.056.52v.846H13.42v-.846c.442-.26.913-.433 1.413-.52v-8.108h-1.627v-.846a5.885 5.885 0 011.627-.715v-.759c0-.896.121-1.633.364-2.211.257-.593.6-1.055 1.028-1.388a3.622 3.622 0 011.499-.715 8.568 8.568 0 011.862-.195zM26.622 28.42a5.598 5.598 0 011.713-.737v-1.756c.086-.087.229-.166.429-.238.214-.087.435-.16.663-.217a17.612 17.612 0 011.264-.325h.728V27.9h2.826v1.366h-2.826v5.615c0 .896.107 1.517.32 1.864.23.347.6.52 1.114.52.257 0 .543-.014.857-.043.328-.043.628-.115.899-.217l.15.716c-.129.13-.321.267-.578.412a5.996 5.996 0 01-.857.412c-.314.13-.663.238-1.049.325-.371.087-.764.13-1.178.13-.927 0-1.62-.246-2.077-.737-.456-.491-.685-1.286-.685-2.385v-6.612h-1.713v-.846zM41.213 30.393a2.998 2.998 0 00-.6.434c-.228.202-.435.534-.62.997v5.55c.285.029.57.087.856.173.285.073.57.188.856.347v.846h-6.21v-.846c.258-.144.5-.253.729-.325.228-.072.457-.137.685-.195v-7.935l-1.413-.173v-.846c.228-.101.506-.195.835-.282a12.27 12.27 0 011.049-.216c.357-.073.7-.13 1.028-.174l.856-.108h.728v2.883h.086c.114-.318.278-.65.492-.997.229-.347.493-.665.792-.954.3-.29.629-.52.985-.694a2.315 2.315 0 011.114-.238c.157.202.293.491.407.867.114.361.207.708.278 1.04v.846h-2.933zM54.288 35.596v.824c.014.231.036.477.064.737l1.478.217v.759a4.212 4.212 0 01-.707.26c-.285.087-.592.173-.92.26-.315.072-.629.13-.943.174a13.48 13.48 0 01-.835.13h-.728a3.216 3.216 0 01-.257-.998c-.028-.332-.05-.737-.064-1.214h-.107c-.071.29-.193.571-.364.846-.171.26-.392.498-.664.715a3.303 3.303 0 01-.92.499c-.357.13-.757.195-1.2.195-.47 0-.906-.072-1.306-.217a3.29 3.29 0 01-1.049-.607 2.82 2.82 0 01-.706-.932 2.997 2.997 0 01-.257-1.258c0-.65.121-1.185.364-1.604.242-.419.62-.759 1.134-1.019.529-.274 1.2-.477 2.013-.607.828-.13 1.827-.224 2.998-.282.114-1.243.064-2.153-.15-2.731-.214-.578-.678-.867-1.392-.867-.442 0-.85.072-1.22.216l-1.007 2.602h-.942a6.977 6.977 0 01-.342-.585c-.1-.232-.2-.47-.3-.716-.086-.26-.164-.52-.236-.78-.057-.26-.1-.514-.128-.76.542-.375 1.242-.671 2.098-.888a11.046 11.046 0 012.72-.325c.813 0 1.477.094 1.99.282.515.173.914.419 1.2.737.3.303.507.665.62 1.084.115.419.172.867.172 1.344 0 .867-.021 1.655-.064 2.363-.029.694-.043 1.41-.043 2.146zm-4.818 1.67c.3 0 .557-.058.771-.174.214-.115.393-.253.535-.412.158-.159.272-.332.343-.52.086-.188.15-.354.193-.499v-2.168c-.671.015-1.22.058-1.649.13-.428.073-.764.196-1.006.369a1.29 1.29 0 00-.514.629 2.79 2.79 0 00-.129.91c0 .55.129.976.386 1.28.257.303.614.455 1.07.455zM61.346 39l-4.282-9.734a6.317 6.317 0 01-1.135-.52V27.9h5.631v.824c-.185.1-.378.202-.578.303a4.67 4.67 0 01-.642.239l1.991 5.55.407 1.452h.043l.342-1.474 1.82-5.528a4.19 4.19 0 01-.642-.217 3.927 3.927 0 01-.535-.304V27.9h4.132v.845a2.65 2.65 0 01-.535.282c-.2.087-.428.166-.685.239L62.93 38.74l-1.585.26zM77.778 36.919c-.114.245-.3.498-.557.759-.242.245-.55.47-.92.672-.357.188-.778.34-1.264.455-.47.13-.985.195-1.541.195-.885 0-1.67-.13-2.356-.39a4.67 4.67 0 01-1.713-1.15 5.222 5.222 0 01-1.049-1.799c-.228-.694-.342-1.474-.342-2.341 0-1.85.478-3.26 1.434-4.228.957-.968 2.284-1.452 3.983-1.452.728 0 1.406.1 2.034.303.642.203 1.17.535 1.584.997.429.463.721 1.07.878 1.822.172.751.164 1.669-.021 2.753h-6.574c.015 1.142.3 2.052.857 2.732.57.679 1.406 1.019 2.505 1.019a5.23 5.23 0 001.456-.217c.514-.145.914-.333 1.2-.564l.406.434zm-4.41-8.043c-.286 0-.543.05-.772.151-.214.101-.407.29-.578.564-.157.26-.285.621-.385 1.084-.1.448-.171 1.019-.214 1.713h3.447c.1-1.128.036-1.995-.193-2.602-.228-.607-.663-.91-1.306-.91zM85.446 38.74h-5.91v-.846a6.984 6.984 0 011.413-.52V24.236l-1.627-.173v-.846c.185-.087.442-.173.77-.26.33-.087.679-.16 1.05-.217.385-.072.764-.13 1.135-.173.385-.058.728-.102 1.028-.13h.728v14.937c.47.116.942.29 1.413.52v.846z" fill="#FCF5ED"/></svg>